<svg id="Layer_1" data-name="Layer 1" xmlns="http://www.w3.org/2000/svg" viewBox="0 0 100 100"><defs><style>.cls-1{fill:#35d9ae;}.cls-2{fill:#fa2415;}</style></defs><title>Astronaut</title><path class="cls-1" d="M49,91a1,1,0,0,1-1-1V82.947a1,1,0,0,1,2,0V90A1,1,0,0,1,49,91Z"/><path class="cls-1" d="M49,55.282A16.979,16.979,0,1,1,65.981,38.3,17,17,0,0,1,49,55.282Zm0-31.835A14.856,14.856,0,1,0,63.858,38.3,14.873,14.873,0,0,0,49,23.447Z"/><path class="cls-1" d="M49,50.705A12.415,12.415,0,0,1,36.6,38.3c0-6.063,4.4-9.4,12.4-9.4s12.4,3.339,12.4,9.4A12.415,12.415,0,0,1,49,50.705Zm0-19.8c-6.9,0-10.4,2.491-10.4,7.4a10.4,10.4,0,0,0,20.8,0C59.405,33.392,55.905,30.9,49,30.9Z"/><path class="cls-1" d="M57.985,39.351A.852.852,0,0,1,57,40c-.867-.056-.938-1.155-.938-1.155a12.344,12.344,0,0,0-.052-1.508c-.192-2.868-4.513-2.9-4.564-2.9h0s-1.457.271-1.457-1.1c0-1,1.455-.9,1.455-.9h.008c2.161,0,6.3.995,6.554,4.766C58.123,38.981,58.047,39.187,57.985,39.351Z"/><rect class="cls-1" x="48.034" y="22.57" width="2" height="4.347"/><rect class="cls-1" x="51.146" y="22.57" width="1.777" height="3.43"/><rect class="cls-1" x="45.083" y="22.57" width="1.777" height="3.43"/><path class="cls-1" d="M70,53.5a1,1,0,0,1-1-1V36a7.009,7.009,0,0,0-7-7H60.837c-.553,0-.5-.447-.5-1s-.049-1,.5-1H62a9.01,9.01,0,0,1,9,9V52.5A1,1,0,0,1,70,53.5Z"/><path class="cls-1" d="M27,53.5a1,1,0,0,1-1-1V36a9.01,9.01,0,0,1,9-9h.834a1,1,0,0,1,0,2H35a7.009,7.009,0,0,0-7,7V52.5A1,1,0,0,1,27,53.5Z"/><path class="cls-1" d="M22,90.977A.978.978,0,0,1,21.026,90V62.887a12.712,12.712,0,0,1,12.7-12.7H39a.977.977,0,0,1,0,1.954h-5.28A10.756,10.756,0,0,0,22.979,62.887V90A.977.977,0,0,1,22,90.977Z"/><path class="cls-1" d="M76,90.977A.978.978,0,0,1,75.026,90V62.887A10.755,10.755,0,0,0,64.283,52.144H59a.977.977,0,0,1,0-1.954h5.28a12.711,12.711,0,0,1,12.7,12.7V90A.977.977,0,0,1,76,90.977Z"/><path class="cls-1" d="M49.061,59.943A25.578,25.578,0,0,1,30.6,52.16l1.431-1.4a23.782,23.782,0,0,0,33.944.112L67.4,52.282A25.589,25.589,0,0,1,49.061,59.943Z"/><rect class="cls-1" x="48" y="59" width="2" height="6"/><path class="cls-2" d="M58,83H40V64H58ZM42,81H56V66H42Z"/><circle class="cls-2" cx="45.5" cy="69.5" r="1"/><circle class="cls-2" cx="45.5" cy="73.5" r="1"/><circle class="cls-2" cx="45.5" cy="77.5" r="1"/><path class="cls-1" d="M31,90.97a.97.97,0,0,1-.97-.97V52a.97.97,0,0,1,1.94,0V90A.97.97,0,0,1,31,90.97Z"/><path class="cls-1" d="M68,90.97a.97.97,0,0,1-.97-.97V53a.97.97,0,0,1,1.94,0V90A.97.97,0,0,1,68,90.97Z"/><path class="cls-1" d="M76.12,70.12H70.88V63.88h5.24Zm-3-2.24H76V66.12H73.12Z"/><path class="cls-1" d="M33,29.12A1.119,1.119,0,0,1,31.88,28V18a1.12,1.12,0,1,1,2.24,0V28A1.119,1.119,0,0,1,33,29.12Z"/><path class="cls-1" d="M33,19.345A4.345,4.345,0,1,1,37.345,15,4.35,4.35,0,0,1,33,19.345Zm0-6A1.655,1.655,0,1,0,34.655,15,1.656,1.656,0,0,0,33,13.345Z"/><path class="cls-1" d="M89,27a1,1,0,0,1-1-1V20a1,1,0,0,1,2,0v6A1,1,0,0,1,89,27Z"/><path class="cls-1" d="M92,24H86a1,1,0,0,1,0-2h6a1,1,0,0,1,0,2Z"/><path class="cls-1" d="M7.879,17.121a1,1,0,0,1-.707-1.707l4.242-4.242a1,1,0,0,1,1.414,1.414L8.586,16.828A1,1,0,0,1,7.879,17.121Z"/><path class="cls-1" d="M12.121,17.121a1,1,0,0,1-.707-.293L7.172,12.586a1,1,0,0,1,1.414-1.414l4.242,4.242a1,1,0,0,1-.707,1.707Z"/><path class="cls-1" d="M82.75,48.784a2.534,2.534,0,1,1,2.534-2.534A2.537,2.537,0,0,1,82.75,48.784Zm0-3.5a.966.966,0,1,0,.966.966A.968.968,0,0,0,82.75,45.284Z"/><path class="cls-1" d="M14.75,42.784a2.534,2.534,0,1,1,2.534-2.534A2.537,2.537,0,0,1,14.75,42.784Zm0-3.5a.966.966,0,1,0,.966.966A.968.968,0,0,0,14.75,39.284Z"/><path class="cls-1" d="M66.75,13.784a2.534,2.534,0,1,1,2.534-2.534A2.537,2.537,0,0,1,66.75,13.784Zm0-3.5a.966.966,0,1,0,.966.966A.968.968,0,0,0,66.75,10.284Z"/><path class="cls-1" d="M87,79a1,1,0,0,1-1-1V72a1,1,0,0,1,2,0v6A1,1,0,0,1,87,79Z"/><path class="cls-1" d="M90,76H84a1,1,0,0,1,0-2h6a1,1,0,0,1,0,2Z"/><path class="cls-1" d="M11,79a1,1,0,0,1-1-1V72a1,1,0,0,1,2,0v6A1,1,0,0,1,11,79Z"/><path class="cls-1" d="M14,76H8a1,1,0,0,1,0-2h6a1,1,0,0,1,0,2Z"/></svg>