<svg xmlns="http://www.w3.org/2000/svg" viewBox="0 0 50 50"><defs><style>.cls-1{fill:#35d9ae;}.cls-2{fill:#fa2415;}</style></defs><title>erwachsen</title><g id="Layer_4" data-name="Layer 4"><path class="cls-1" d="M25,45.6V40.181c-.615-.346-.336-.626.01-.626s.625.28.99.626V45.6Z"/><path class="cls-1" d="M24.753,23.892a10.612,10.612,0,1,1,10.6-10.612A10.62,10.62,0,0,1,24.753,23.892Zm0-19.9A9.285,9.285,0,1,0,34.03,13.28,9.292,9.292,0,0,0,24.753,4Z"/><path class="cls-1" d="M24.753,21.031a7.757,7.757,0,0,1-7.746-7.751c0-3.789,2.751-5.876,7.746-5.876S32.5,9.491,32.5,13.28A7.756,7.756,0,0,1,24.753,21.031Zm0-12.377c-4.311,0-6.5,1.556-6.5,4.626a6.5,6.5,0,1,0,12.993,0C31.249,10.21,29.063,8.654,24.753,8.654Z"/><path class="cls-1" d="M38.762,22.1c-.346,0-1.25,0-.762-.346V11.439A5.333,5.333,0,0,0,33.137,7h-.729c-.345.064-.315-.216-.315-.561s-.03-.625.315-.439h.729A5.708,5.708,0,0,1,39,11.439V21.751C38.762,22.1,39.107,22.1,38.762,22.1Z"/><path class="cls-1" d="M11.262,22.376c-.346,0-.625-.279-.262-.625V11.439A4.892,4.892,0,0,1,16.262,6h.521c.345-.186.625.093.625.439A.54.54,0,0,1,16.783,7h-.521A4.307,4.307,0,0,0,12,11.439V21.751A.83.83,0,0,1,11.262,22.376Z"/><path class="cls-1" d="M8,45.6V28.243c-.474-4.376,3.086-7.935,7.462-8.243h2.794c.337.308.61.581.61.918s.233.61-.1.082h-3.3c-3.7.528-6.715,3.54-6.462,7.243V45.6Z"/><path class="cls-1" d="M41,45.6V28.243c.276-3.7-2.736-6.715-6.438-7.243h-3.3c-.337.528-.611.255-.611-.082s.274-.61.611-.918h3.3c4.376.308,7.935,3.867,7.438,8.243V45.6Z"/><path class="cls-1" d="M24.789,26.805a15.972,15.972,0,0,1-11.528-4.864l.894-.873a14.844,14.844,0,0,0,21.2.07l1.914.087A18.21,18.21,0,0,1,24.789,26.805Z"/><rect class="cls-1" x="25" y="26" width="1" height="4"/><path class="cls-2" d="M31,40H20V29H31ZM21,39h9V30H21Z"/><circle class="cls-2" cx="22.5" cy="32.5" r="0.5"/><circle class="cls-2" cx="22.5" cy="34.5" r="0.5"/><circle class="cls-2" cx="22.5" cy="36.5" r="0.5"/><path class="cls-1" d="M13,45.6V21.832a.908.908,0,0,1,.76-.607c.335,0,.606.271.24.607V45.6Z"/><path class="cls-1" d="M36,45.6V21.371c.279-.335.55-.607.885-.607s.606.272.115.607V45.6Z"/><path class="cls-1" d="M42,32H39V29h3Zm-2-1h2V30H40Z"/></g></svg>