<svg xmlns="http://www.w3.org/2000/svg" viewBox="0 0 100 100"><defs><style>.cls-1{fill:#35d9ae;}</style></defs><title>BottleNotActive</title><g id="Tetra"><path class="cls-1" d="M39.179,73.039a1.5,1.5,0,0,0-2.041.578A9,9,0,0,0,38.652,84.38a1.5,1.5,0,0,0,2.116-2.127,6,6,0,0,1-1.011-7.173A1.5,1.5,0,0,0,39.179,73.039Z"/><circle class="cls-1" cx="60" cy="79" r="1"/><circle class="cls-1" cx="60" cy="72" r="1"/><circle class="cls-1" cx="55.5" cy="74.5" r="0.5"/><path class="cls-1" d="M70.357,76.75a1.5,1.5,0,0,0-1.5,1.5c0,5.928-3.944,10.75-8.792,10.75a4.217,4.217,0,0,1-3.162-.859l-1.237-.751-.793.527a8.029,8.029,0,0,1-3.486,1.453,5.939,5.939,0,0,1-3.025-1.155c-.133-.084-.255-.16-.361-.224l-.747-.446-.758.428A6.72,6.72,0,0,1,42.292,89C37.444,89,33.5,84.178,33.5,78.25a41.223,41.223,0,0,1,1.093-8.323,15.477,15.477,0,0,0-.7-6.927H68.111a15.473,15.473,0,0,0-.7,6.927,1.5,1.5,0,1,0,2.926-.662,13.1,13.1,0,0,1,.583-5.209,36.9,36.9,0,0,0,2.706-17.642C73.22,39.441,66.09,27.1,57,24.018V20.662A3.5,3.5,0,0,0,59,17.5v-6A3.5,3.5,0,0,0,55.5,8h-9A3.5,3.5,0,0,0,43,11.5v6a3.5,3.5,0,0,0,2,3.162v3.357c-9.137,3.094-16.209,15.219-16.622,22.4a36.907,36.907,0,0,0,2.7,17.641,13.085,13.085,0,0,1,.584,5.21A44.207,44.207,0,0,0,30.5,78.25C30.5,85.832,35.79,92,42.292,92a9.517,9.517,0,0,0,4.883-.99,8.175,8.175,0,0,0,4.212,1.36,9.49,9.49,0,0,0,4.323-1.444A6.738,6.738,0,0,0,60.065,92c6.5,0,11.792-6.168,11.792-13.75A1.5,1.5,0,0,0,70.357,76.75ZM36.28,34.9a17.285,17.285,0,0,1,14.6-.029,9.857,9.857,0,0,0,4.09.868,16.271,16.271,0,0,0,8.9-3.217A31.676,31.676,0,0,1,69.158,41H32.874A32.677,32.677,0,0,1,36.28,34.9ZM56,11.5V17H54V11h1.5A.5.5,0,0,1,56,11.5ZM50,17V11h2v6Zm-4-5.5a.5.5,0,0,1,.5-.5H48v6H46Zm.864,15.094L48,26.31V20h6v4.386a2.5,2.5,0,0,0,1.777,2.388,16.489,16.489,0,0,1,5.941,3.579c-2.1,1.4-6.024,3.389-9.6,1.78A20.342,20.342,0,0,0,40,30.6,16.06,16.06,0,0,1,46.864,26.594ZM31.372,46.586A13.086,13.086,0,0,1,31.829,44H70.188a13.46,13.46,0,0,1,.44,2.586A33.987,33.987,0,0,1,69.179,60H32.82A34,34,0,0,1,31.372,46.586Z"/></g></svg>