<svg id="Layer_1" data-name="Layer 1" xmlns="http://www.w3.org/2000/svg" xmlns:xlink="http://www.w3.org/1999/xlink" viewBox="0 0 30 30"><defs><style>.cls-1,.cls-2{fill:none;}.cls-2{clip-rule:evenodd;}.cls-3{clip-path:url(#clip-path);}.cls-4{clip-path:url(#clip-path-2);}.cls-5{isolation:isolate;}.cls-6{clip-path:url(#clip-path-3);}.cls-7{clip-path:url(#clip-path-4);}.cls-8{clip-path:url(#clip-path-5);}.cls-9{fill:#abf4dc;}.cls-10{clip-path:url(#clip-path-9);}.cls-11{fill:#8ae2c7;}.cls-12{clip-path:url(#clip-path-11);}.cls-13{fill:#86d1b4;}.cls-14{clip-path:url(#clip-path-13);}.cls-15{clip-path:url(#clip-path-14);}.cls-16{fill:#fa2415;}.cls-17{clip-path:url(#clip-path-15);}.cls-18{clip-path:url(#clip-path-17);}</style><clipPath id="clip-path"><rect class="cls-1" x="-2.392" y="-66.234" width="178.375" height="82.967"/></clipPath><clipPath id="clip-path-2"><rect class="cls-1" x="50.607" y="-569.714" width="375" height="667"/></clipPath><clipPath id="clip-path-3"><rect class="cls-1" x="-4.393" y="-68.714" width="184" height="86"/></clipPath><clipPath id="clip-path-4"><path class="cls-2" d="M161.683-49.043s1.705-4.361,5.932-.145S178.7-16.3,174.847-11.706c0,0-1.39,3.527-5.617-.69l-5.159.939s-.163,2.523-2.246,2.28a4.448,4.448,0,0,1-3.106-2.395L151.3-9.285S129.173,13.6,125.547,15.2a18.486,18.486,0,0,1-12.388.855c-4.46-1.213-14.48-4.531-14.48-4.531S94,9.1,92.917,6.648s-1.768-2.794-1.768-2.794L81.272-2.918s-.747-.642-1.462.578S76.532,2,74.988,2.121,67.562.983,67.562.983,64.346-.3,63.818-3.166,61.71-11.2,61.71-11.2,57.8-3.474,55.926-3.444,50.4-6.176,48.2-4.529,40.349,5.627,34.214,8.927,18.687,14.872,14.586,13.9,6.561,8.666,6.561,8.666s-10.334-21.18-8.8-35.8S4.2-61.96,8.087-62.98s7.041-5.179,18.884-2.194,9.083,3.333,10.492,4.167,13.294,14.25,13.86,14.772,2.189-2.583,3.749-1.774l1.562.806s.274-1.92,1.764-.634,5.515,5.229,7.914,4.636S78.537-52.6,79.267-52.885s8.823,4.47,8.823,4.47S99.642-63.14,102.458-63.186s17.363,4.005,18.8,3.275,2.2-3.36,4.714-1.638,18.83,16.2,18.83,16.2,5.573-.393,5.092-.46.864-2.964,3.194-3.077a3.114,3.114,0,0,1,3.065,1.313Z"/></clipPath><clipPath id="clip-path-5"><rect class="cls-1" x="50.607" y="-66.714" width="126" height="84"/></clipPath><clipPath id="clip-path-9"><path class="cls-2" d="M6.562,8.666s3.927,4.271,8.023,5.237,13.493-1.676,19.629-4.976S45.991-2.88,48.2-4.53s5.852,1.117,7.726,1.086S61.709-11.2,61.709-11.2s1.58,5.165,2.109,8.031S67.562.983,67.562.983s5.882,1.265,7.426,1.139,4.106-3.24,4.822-4.462,1.463-.578,1.463-.578l9.876,6.772s.689.34,1.768,2.793,5.762,4.872,5.762,4.872,10.02,3.318,14.48,4.531a18.488,18.488,0,0,0,12.387-.855c3.627-1.6,25.754-24.48,25.754-24.48l7.418-2.287a4.45,4.45,0,0,0,3.107,2.395c2.084.243,2.247-2.28,2.247-2.28l5.159-.94c4.226,4.218,5.617.692,5.617.692,3.855-4.6-3-33.267-7.232-37.483s-5.934.145-5.934.145l-5.53,1.475a3.114,3.114,0,0,0-3.064-1.313c-2.33.113-3.68,3.008-3.2,3.077s-5.091.46-5.091.46-16.316-14.481-18.83-16.2-3.282.909-4.715,1.637-15.982-3.32-18.8-3.275S88.09-48.414,88.09-48.414,80-53.174,79.268-52.885,68.712-43.794,66.312-43.2s-6.423-3.348-7.913-4.636-1.766.635-1.766.635l-1.561-.807c-1.56-.808-3.182,2.293-3.748,1.774S38.871-60.173,37.463-61.008s1.349-1.181-10.492-4.166S11.975-64,8.086-62.98-.7-41.746-2.237-27.13s8.8,35.8,8.8,35.8M161.373-46.541a.708.708,0,0,1,1.35.113c.039.178.067.321.094.454a.577.577,0,0,1,.445.688c-.972,5.858.825,11.627,1.817,17.362a.705.705,0,0,1-1.323.428c-2.377-5.212-4.664-13.426-2.383-19.045m-6.24,1.358c2.148-1.555,4.211-1.529,4.624.269a.642.642,0,0,1,.363.838c-1.187,3.168-.439,6.581.027,9.821.2,1.407.876,4-.063,5.317-2.918,4.082-5.371-.624-6.075-3.518-.717-2.962-1.885-10.546,1.124-12.727m-3.275-.416a.7.7,0,0,1,.937.324,4.259,4.259,0,0,1,.272,1.254.532.532,0,0,1,.182.559,22.792,22.792,0,0,0-.312,7.89c.265,1.827.756,3.555-.032,5.316a.714.714,0,0,1-1.19.216c-3.154-2.963-4.458-13.332.143-15.559M143-39.327c.274-2.118,3.245-7.814,5.2-4.173a.556.556,0,0,1,.34.662c-.774,3.981-.131,7.915.533,11.864.312,1.841.567,3.675.761,5.531.163,1.536.967,3.682.679,5.209-.176.95-.8,1.788-1.941,1.366-2.126-.788-3.068-2.179-3.881-4.248A35.431,35.431,0,0,1,143-39.327M115.723-15.56a63.46,63.46,0,0,1,.333-21.595c.429-2.366,4-20.751,8.8-20.975a.691.691,0,0,1,.932.075c.106.112.221.214.33.325a.793.793,0,0,1,.058.058c2.84,2.911,6.079,5.373,9.161,8.023,1.972,1.7,5.147,3.8,5.961,6.377,1.167,3.689.117,8.242.354,12.08.223,3.579,2.239,7.011,2.051,10.614-.133,2.579-1.471,4.276-3.3,6-2.968,2.8-6.275,5.387-9.492,7.893s-7.354,5.946-11.066,2.5c-2.862-2.657-3.536-7.769-4.113-11.382M91.617-38.572a60.11,60.11,0,0,1,6.9-17.262c1.113-1.936,1.827-4.174,3.792-5.379,1.036-.635,2.5.245,3.613,1.07,3,.973,6.229,1.294,9.054,2.844,3.989,2.184,2.055,7.128.963,10.488a99.771,99.771,0,0,0-4.314,22.9c-.254,3.136-.147,6.274-.305,9.413-.051.977-.452,1.8-1.481,1.894-1.833.175-4.15-2.631-5.4-3.649-2.527-2.046-5-4.151-7.351-6.392-5.06-4.817-6.938-9-5.47-15.93M72.023-43.826A49.478,49.478,0,0,0,76.751-49.1c.668-.952,1.127-1.924,2.267-2.181a.64.64,0,0,1,.84-.073c1.481,1.006,4.223,2.447,4.559,4.444.414,2.461-.694,4.868-1.626,7.092a17.4,17.4,0,0,0-.911,11.524c.859,3.7,2.034,7.2,1.868,11.048a.711.711,0,0,1-1.1.512c-2.985-1.8-4.139-5.848-6.163-8.507C74.909-27.306,73.5-29.5,72-31.628c-1.152-1.647-2.682-3-3.615-4.788-1.4-2.7,2.034-5.711,3.638-7.41m-19.552,11.6c-.029-1.745.944-3.775,1.288-5.44.473-2.293.7-4.636,1.1-6.943a.709.709,0,0,1,1.332-.243c.747,1.532,1.51,3.052,2.228,4.588q3.269,6.39,6.507,12.794c2.157,4.294,4.9,8.862,6.052,13.538a.706.706,0,0,1-1.089.7c-2.582-2.1-5.638-3.544-7.805-6.125C59.532-22.4,58.868-26.3,55.412-28.7c-1.631-1.132-2.9-1.377-2.941-3.532M19.31-14.616a4.223,4.223,0,0,1-.574-2.993,9.313,9.313,0,0,1,.18-2.459,47.017,47.017,0,0,1,2.061-5.66c1.125-3.165-.385-6.6-1.663-9.456-1.612-3.6-3.342-6.6-3.457-10.613-.127-4.309,1.163-8.711,2.3-12.831a.713.713,0,0,1,1.194-.218c.089.1.165.206.255.3a.747.747,0,0,1,.356.3c.062.1.115.213.172.318a36.867,36.867,0,0,1,4.151,6.006c-.713-3.47-1.981-6.8-2.088-10.356-.017-.5.547-.681.938-.594.122.028.229.064.346.1a.681.681,0,0,1,.492-.014c3.16,1.054,6.6,1.125,9.672,2.42a12.42,12.42,0,0,1,4.381,3.677c2.786,2.368,5.476,4.886,8.162,7.335,2.437,2.222,1.887,4.273.059,6.43a12.507,12.507,0,0,0-.909,5.413c.024.27.049.537.075.8.165.47.327.954.461,1.456a5.455,5.455,0,0,1-.165,3.119c0,.5-.026.994-.074,1.5-.4,4.169-3.122,8.609-5.221,12.157C37.1-12.863,29.624-6.457,22.76-6.224a.7.7,0,0,1-.63-.568C21.5-9.486,20.107-12,19.31-14.616M2.844-21.745a90.689,90.689,0,0,1-.1-13.532C3.332-43.8,5.418-52.7,10.76-59.567a.707.707,0,0,1,1.276.457c-.156,2.6-.915,5.1-1.167,7.693-.318,3.251.685,6.713,1.365,9.924.349.7.7,1.405,1.022,2.129,1.71,3.859,3.9,7.9,3.8,12.225a19.079,19.079,0,0,1-3.938,10.547c-2.015,2.8-3.926,6.026-7.155,7.585a.705.705,0,0,1-.935-.325c-1.637-3.953-1.848-8.2-2.181-12.413"/></clipPath><clipPath id="clip-path-11"><path class="cls-2" d="M-2.237-27.13C-.7-41.746,4.2-61.959,8.086-62.98c.15-.039.3-.091.445-.14a64.054,64.054,0,0,0-2.9,7.391A114.925,114.925,0,0,0,1.613-39.511C-.111-29.066-.121-18.236,2.972-8.018c1.23,4.069,2.875,7.891,6.2,10.7C11.6,4.727,15.818,8.946,19.45,7.684A37.829,37.829,0,0,0,27.8,3.864a14.175,14.175,0,0,0,2.384-1.018c2.742-1.553,4.246-5.883,5.7-8.454q4.5-7.928,8.636-16.04-.426,1.572-.854,3.141c-1.13,4.153-3.056,8.807-1.982,13.139a.71.71,0,0,0,1.147.4,36.968,36.968,0,0,0,6.208-6.507,2.249,2.249,0,0,0-.124-3.05A29.8,29.8,0,0,1,53-16.094a.685.685,0,0,0,.384-.754A18.9,18.9,0,0,0,50.9-22.612c3.964-.923,8.263-.905,10.466,3.114,1.823,3.327,4.067,6.558,5.464,10.1.473,1.193.9,3.428,2.5,3.632A28.835,28.835,0,0,0,75.5-6.145a.7.7,0,0,0,.506-.99c-2.5-5.731-4.622-11.7-7.458-17.279-.734-1.443-1.5-2.874-2.258-4.306,1.507,2.117,3.028,4.225,4.523,6.352,2.544,3.617,4.679,7.575,7.97,10.59a34.648,34.648,0,0,0,8.85,5.354c.508.236,1-.3.929-.783-.745-5.007-1.395-10.011-1.8-15.035A125.616,125.616,0,0,0,93.3-1.951c1.666,4.119,3.573,7.125,8.123,8.29,4.977,1.274,10.044,2.718,15.114,3.545a.7.7,0,0,0,.762-.633c-.131-3.008-1.721-5.6-2.193-8.537-.215-1.322-.36-2.653-.49-3.983.966,1.734,1.971,3.449,3.063,5.115.871,1.335,1.964,3.231,3.746,3.47,2.007.269,5.14,1.031,7.021-.094,2.9-1.733,5.133-4.476,7.742-6.615,2.894-2.37,5.844-4.7,8.564-7.266.806-.765,3.031-2.194,2.67-3.658A25.942,25.942,0,0,0,145.594-17c1.394,1.259,3,2.332,4.691,2.223,1.56-.1,3.2-1.591,4.678-1.3,1.656.32,1.827,1.119,3.477.705a1.984,1.984,0,0,0,1.287-1.571c.179-1.8,2.239-2.073,3.932-2.322,1.605-.236,3.175.65,4.156-.067,1.183,3.1,3.058,6.182,6.473,6.983a3.71,3.71,0,0,0,.91.1,2.864,2.864,0,0,1-.35.548s-1.392,3.527-5.617-.69l-5.159.939s-.163,2.523-2.247,2.28a4.45,4.45,0,0,1-3.107-2.395L151.3-9.285S129.173,13.6,125.547,15.2a18.486,18.486,0,0,1-12.388.855c-4.459-1.213-14.48-4.531-14.48-4.531S94,9.1,92.917,6.648s-1.768-2.794-1.768-2.794L81.272-2.918s-.748-.642-1.461.578S76.531,2,74.987,2.121,67.563.983,67.563.983,64.347-.3,63.819-3.166s-2.11-8.031-2.11-8.031S57.8-3.474,55.926-3.444,50.4-6.176,48.2-4.529,40.348,5.627,34.214,8.927,18.688,14.872,14.586,13.9,6.562,8.666,6.562,8.666s-10.335-21.18-8.8-35.8"/></clipPath><clipPath id="clip-path-13"><path class="cls-2" d="M4.668,3h22a2,2,0,0,1,0,4h-22a2,2,0,1,1,0-4Z"/></clipPath><clipPath id="clip-path-14"><rect class="cls-1" x="-10.332" y="-14" width="375" height="667"/></clipPath><clipPath id="clip-path-15"><path class="cls-2" d="M10.668,13h16a2,2,0,0,1,0,4h-16a2,2,0,0,1,0-4Z"/></clipPath><clipPath id="clip-path-17"><path class="cls-2" d="M4.668,23h14a2,2,0,0,1,0,4h-14a2,2,0,1,1,0-4Z"/></clipPath></defs><title>Artboard 45</title><g class="cls-3"><g class="cls-4"><g class="cls-5"><g class="cls-6"><g class="cls-7"><g class="cls-8"><rect class="cls-9" x="-7.392" y="-71.234" width="188.375" height="92.968"/></g></g></g></g></g></g><g class="cls-3"><g class="cls-4"><g class="cls-5"><g class="cls-6"><g class="cls-10"><g class="cls-8"><rect class="cls-11" x="-7.392" y="-71.234" width="188.375" height="92.968"/></g></g></g></g></g></g><g class="cls-12"><g class="cls-4"><rect class="cls-13" x="-7.393" y="-68.12" width="187.591" height="89.853"/></g></g><g class="cls-14"><g class="cls-15"><rect class="cls-16" x="-2.332" y="-2" width="36" height="14"/></g></g><g class="cls-17"><g class="cls-15"><rect class="cls-16" x="3.668" y="8" width="30" height="14"/></g></g><g class="cls-18"><g class="cls-15"><rect class="cls-16" x="-2.332" y="18" width="28" height="14"/></g></g></svg>
