<svg id="Layer_1" data-name="Layer 1" xmlns="http://www.w3.org/2000/svg" xmlns:xlink="http://www.w3.org/1999/xlink" viewBox="0 0 51 51"><defs><style>.cls-1,.cls-2,.cls-4{fill:#fa2415;}.cls-1{clip-rule:evenodd;}.cls-2{fill-rule:evenodd;}.cls-3{clip-path:url(#clip-path);}</style><clipPath id="clip-path"><path class="cls-1" d="M-43,23h11a2.5,2.5,0,0,1,2.5,2.5A2.5,2.5,0,0,1-32,28H-43a2.5,2.5,0,0,1-2.5-2.5A2.5,2.5,0,0,1-43,23Z"/></clipPath></defs><title>button.plus</title><path class="cls-2" d="M-43,23h11a2.5,2.5,0,0,1,2.5,2.5A2.5,2.5,0,0,1-32,28H-43a2.5,2.5,0,0,1-2.5-2.5A2.5,2.5,0,0,1-43,23Z"/><path class="cls-4" d="M25.722,1.778a23.5,23.5,0,1,1-23.5,23.5,23.527,23.527,0,0,1,23.5-23.5m0-2a25.5,25.5,0,1,0,25.5,25.5,25.5,25.5,0,0,0-25.5-25.5Z"/><path class="cls-2" d="M31.222,22.778h-3v-3a2.5,2.5,0,0,0-5,0v3h-3a2.5,2.5,0,0,0,0,5h3v3a2.5,2.5,0,0,0,5,0v-3h3a2.5,2.5,0,0,0,0-5Z"/></svg>
