<svg xmlns="http://www.w3.org/2000/svg" viewBox="0 0 51 51"><defs><style>.cls-1{fill:#fa2415;}.cls-2{fill:none;}</style></defs><title>button.bearbeiten</title><g id="Layer_4" data-name="Layer 4"><path class="cls-1" d="M25.5,2A23.5,23.5,0,1,1,2,25.5,23.527,23.527,0,0,1,25.5,2m0-2A25.5,25.5,0,1,0,51,25.5,25.5,25.5,0,0,0,25.5,0Z"/><path class="cls-2" d="M-203.971-281.723-551.885,66.191l471.64,471.64L267.669,189.917Z"/><path class="cls-1" d="M34.688,16.312a3.384,3.384,0,0,0-4.47.17l-.822.863L33.652,21.6l.822-.863A3.332,3.332,0,0,0,34.688,16.312Z"/><path class="cls-1" d="M27.628,19.113,19.937,26.87l-3.583,8.222,7.806-4.043,7.724-7.68Zm-6.854,8.336,2.786,2.785L18.4,32.908Z"/></g></svg>
