<svg id="Layer_1" data-name="Layer 1" xmlns="http://www.w3.org/2000/svg" xmlns:xlink="http://www.w3.org/1999/xlink" viewBox="0 0 51 51"><defs><style>.cls-1,.cls-2,.cls-4{fill:#1cdab0;}.cls-1{clip-rule:evenodd;}.cls-2{fill-rule:evenodd;}.cls-3{clip-path:url(#clip-path);}</style><clipPath id="clip-path"><path class="cls-1" d="M20,23H31a2.5,2.5,0,0,1,0,5H20a2.5,2.5,0,0,1,0-5Z"/></clipPath></defs><title>button.minus</title><path class="cls-2" d="M20,23H31a2.5,2.5,0,0,1,0,5H20a2.5,2.5,0,0,1,0-5Z"/><path class="cls-4" d="M25.5,2A23.5,23.5,0,1,1,2,25.5,23.527,23.527,0,0,1,25.5,2m0-2A25.5,25.5,0,1,0,51,25.5,25.5,25.5,0,0,0,25.5,0Z"/></svg>