<svg xmlns="http://www.w3.org/2000/svg" viewBox="0 0 100 100"><defs><style>.cls-1{fill:#0a355a;}.cls-2{fill:#fa2415;}.cls-3{fill:#0f637f;}.cls-4{fill:#35d9ae;}</style></defs><title>CaseActive</title><g id="Layer_4" data-name="Layer 4"><polygon class="cls-1" points="31 22 16 60 84.444 60.065 72 20 31 22"/><polygon class="cls-2" points="17 59 84 59 80 83 22 84 17 70 17 59"/><polygon class="cls-3" points="32 19 32 33 69 34 69 19 32 19"/></g><g id="Tetra"><path class="cls-4" d="M85.985,59.634a1.628,1.628,0,0,0,.012-.2c0-.044-.013-.087-.018-.13a1.552,1.552,0,0,0-.035-.2c0-.01,0-.02-.006-.03L82.81,48.519a1.5,1.5,0,1,0-2.877.853L82.491,58H77.638L71,34.294V24.626L76.657,41.6a1.5,1.5,0,1,0,2.846-.95L72.074,18.362a1.55,1.55,0,0,0-.151-.315A1.5,1.5,0,0,0,70.5,17H33.375a4.282,4.282,0,0,0-4.057,2.885l-14.227,39.1c-.008.021-.008.043-.015.063a1.422,1.422,0,0,0-.047.2c-.008.048-.016.094-.02.141a1.773,1.773,0,0,0,0,.193c0,.052.005.1.013.155,0,.015,0,.031,0,.046l4.258,21.728A4.29,4.29,0,0,0,23.5,85H77.5a4.287,4.287,0,0,0,4.208-3.477l4.26-21.735v-.011C85.981,59.73,85.98,59.682,85.985,59.634ZM68.362,36l6.16,22H27.69l5.482-22ZM68,20V33H33V20.059A1.3,1.3,0,0,1,33.375,20ZM30,26.784V36h.081L24.6,58H18.642ZM78.767,80.955A1.287,1.287,0,0,1,77.5,82H23.5a1.291,1.291,0,0,1-1.265-1.053L18.322,61H82.678Z"/><path class="cls-4" d="M44.92,40.6,63.491,55.457a1.5,1.5,0,1,0,1.875-2.342L46.8,38.258A1.5,1.5,0,0,0,44.92,40.6Z"/><path class="cls-4" d="M43.106,47.14l8.477,6.548a1.5,1.5,0,0,0,1.834-2.376L44.94,44.765a1.5,1.5,0,0,0-1.834,2.375Z"/><path class="cls-4" d="M65.837,49.621a1.5,1.5,0,0,0,1.992-2.242l-9-8a1.5,1.5,0,1,0-1.992,2.242Z"/></g></svg>