<svg id="Layer_1" data-name="Layer 1" xmlns="http://www.w3.org/2000/svg" xmlns:xlink="http://www.w3.org/1999/xlink" viewBox="0 0 12.418 12.417"><defs><style>.cls-1{fill:none;clip-rule:evenodd;}.cls-2{clip-path:url(#clip-path);}.cls-3{clip-path:url(#clip-path-2);}.cls-4{clip-path:url(#clip-path-3);}.cls-5{fill:#1cdab0;}</style><clipPath id="clip-path"><path class="cls-1" d="M48.441,32.763l9.9,9.9a1.273,1.273,0,0,1-1.8,1.8l-9.9-9.9a1.272,1.272,0,1,1,1.8-1.8Z"/></clipPath><clipPath id="clip-path-2"><path class="cls-1" d="M46.642,42.662l9.9-9.9a1.273,1.273,0,1,1,1.8,1.8l-9.9,9.9a1.272,1.272,0,0,1-1.8-1.8Z"/></clipPath><clipPath id="clip-path-3"><path class="cls-1" d="M209.731-259.51v-14A1.272,1.272,0,0,1,211-274.783a1.273,1.273,0,0,1,1.273,1.273v14A1.272,1.272,0,0,1,211-258.238,1.271,1.271,0,0,1,209.731-259.51Z"/></clipPath></defs><title>close</title><path class="cls-5" d="M8.33,6.209l3.536-3.536a1.5,1.5,0,0,0,0-2.121h0a1.506,1.506,0,0,0-2.122,0L6.209,4.087,2.673.552a1.5,1.5,0,0,0-2.121,0h0a1.5,1.5,0,0,0,0,2.121L4.087,6.209.552,9.744a1.5,1.5,0,0,0,0,2.122h0a1.5,1.5,0,0,0,2.121,0L6.209,8.33l3.535,3.536a1.506,1.506,0,0,0,2.122,0h0a1.506,1.506,0,0,0,0-2.122Z"/></svg>