<svg xmlns="http://www.w3.org/2000/svg" viewBox="0 0 100 100"><defs><style>.cls-1{fill:#35d9ae;}</style></defs><title>CupNotActive</title><g id="Tetra"><path class="cls-1" d="M82.042,24.54C82.035,18.04,69.272,13.5,51,13.5c-17.271,0-29.613,4.057-30.921,9.99l-.558.09,7.437,46.271,1.9,8.553h-.065c0,5.262,11.277,8.015,22.418,8.015,10.8,0,21.729-2.588,22.385-7.541l.446.05,1.016-9.159,7.419-45.158ZM51,16.5c18.3,0,28.042,4.672,28.042,8.045S69.3,32.589,51,32.589s-28.042-4.672-28.042-8.044S32.7,16.5,51,16.5ZM38,76.1v5.8c-.734-.2-1.393-.408-2-.624V75.625Q36.965,75.883,38,76.1Zm3,.545c.976.148,1.978.275,3,.379v5.983c-1.063-.125-2.071-.271-3-.44ZM30.229,69.085c0-1.8,7.492-5.317,21.225-5.317C65.972,63.768,72,66.787,72,68.4c0,2.116-7.8,6-20.544,6C37.721,74.4,30.229,70.89,30.229,69.085Zm1.579,9.38.13-.028L30.883,73.69A19.989,19.989,0,0,0,33.933,75H33v4.861C32.244,79.352,31.844,78.868,31.808,78.465Zm19.4,4.954c-1.487,0-2.887-.05-4.212-.134V77.271c1.471.087,2.964.131,4.454.131,7.84,0,15.856-1.546,20.216-4.293l-.588,5.3h-.453C70.629,80.106,63.775,83.419,51.212,83.419ZM72.834,64.814c-2.667-2.028-8.543-4.046-21.38-4.046-9.049,0-18.181,1.615-22.158,4.736L23.6,30.071c5.037,3.4,14.932,5.518,27.4,5.518,12.6,0,22.572-2.157,27.558-5.626Z"/><path class="cls-1" d="M28.9,26.271a1.5,1.5,0,0,0,1.141-.525c1.675-1.958,10.356-3.982,21.985-3.982a1.5,1.5,0,0,0,0-3c-9.934,0-21.29,1.555-24.264,5.031A1.5,1.5,0,0,0,28.9,26.271Z"/></g></svg>