<svg xmlns="http://www.w3.org/2000/svg" xmlns:xlink="http://www.w3.org/1999/xlink" viewBox="0 0 5.068 5.068"><defs><style>.cls-1,.cls-2{fill:#1cdab0;}.cls-1{clip-rule:evenodd;}.cls-2{fill-rule:evenodd;}.cls-3{clip-path:url(#clip-path);}.cls-4{fill:#35d9ae;}</style><clipPath id="clip-path"><path class="cls-1" d="M273.5-100.2h11a2.5,2.5,0,0,1,2.5,2.5,2.5,2.5,0,0,1-2.5,2.5h-11a2.5,2.5,0,0,1-2.5-2.5A2.5,2.5,0,0,1,273.5-100.2Z"/></clipPath></defs><title>stern.kreis</title><g id="Layer_4" data-name="Layer 4"><path class="cls-2" d="M273.5-100.2h11a2.5,2.5,0,0,1,2.5,2.5,2.5,2.5,0,0,1-2.5,2.5h-11a2.5,2.5,0,0,1-2.5-2.5A2.5,2.5,0,0,1,273.5-100.2Z"/><path class="cls-4" d="M2.534,5.068A2.534,2.534,0,1,1,5.068,2.534,2.537,2.537,0,0,1,2.534,5.068Zm0-3.5a.966.966,0,1,0,.966.966A.968.968,0,0,0,2.534,1.568Z"/></g></svg>