<svg xmlns="http://www.w3.org/2000/svg" xmlns:xlink="http://www.w3.org/1999/xlink" viewBox="0 0 6.242 6.242"><defs><style>.cls-1,.cls-2{fill:#1cdab0;}.cls-1{clip-rule:evenodd;}.cls-2{fill-rule:evenodd;}.cls-3{clip-path:url(#clip-path);}.cls-4{fill:#35d9ae;}</style><clipPath id="clip-path"><path class="cls-1" d="M286.9-99.609h11a2.5,2.5,0,0,1,2.5,2.5,2.5,2.5,0,0,1-2.5,2.5h-11a2.5,2.5,0,0,1-2.5-2.5A2.5,2.5,0,0,1,286.9-99.609Z"/></clipPath></defs><title>stern.kreuz</title><g id="Layer_4" data-name="Layer 4"><path class="cls-2" d="M286.9-99.609h11a2.5,2.5,0,0,1,2.5,2.5,2.5,2.5,0,0,1-2.5,2.5h-11a2.5,2.5,0,0,1-2.5-2.5A2.5,2.5,0,0,1,286.9-99.609Z"/><path class="cls-4" d="M4.535,3.121,5.949,1.707A1,1,0,0,0,4.535.293L3.121,1.707,1.707.293A1,1,0,0,0,.293,1.707L1.707,3.121.293,4.535A1,1,0,1,0,1.707,5.949L3.121,4.535,4.535,5.949A1,1,0,0,0,5.949,4.535Z"/></g></svg>