<svg xmlns="http://www.w3.org/2000/svg" xmlns:xlink="http://www.w3.org/1999/xlink" viewBox="0 0 8 8"><defs><style>.cls-1,.cls-2{fill:#1cdab0;}.cls-1{clip-rule:evenodd;}.cls-2{fill-rule:evenodd;}.cls-3{clip-path:url(#clip-path);}.cls-4{fill:#35d9ae;}</style><clipPath id="clip-path"><path class="cls-1" d="M263.4-98.73h11a2.5,2.5,0,0,1,2.5,2.5,2.5,2.5,0,0,1-2.5,2.5h-11a2.5,2.5,0,0,1-2.5-2.5A2.5,2.5,0,0,1,263.4-98.73Z"/></clipPath></defs><title>stern.plus</title><g id="Layer_4" data-name="Layer 4"><path class="cls-2" d="M263.4-98.73h11a2.5,2.5,0,0,1,2.5,2.5,2.5,2.5,0,0,1-2.5,2.5h-11a2.5,2.5,0,0,1-2.5-2.5A2.5,2.5,0,0,1,263.4-98.73Z"/><path class="cls-4" d="M7,3H5V1A1,1,0,0,0,3,1V3H1A1,1,0,0,0,1,5H3V7A1,1,0,0,0,5,7V5H7A1,1,0,0,0,7,3Z"/></g></svg>