<svg xmlns="http://www.w3.org/2000/svg" viewBox="0 0 100 100"><defs><style>.cls-1{fill:#35d9ae;}</style></defs><title>TetraNotActive</title><g id="Tetra"><path class="cls-1" d="M72,19.333V14a4,4,0,0,0-4-4H37a4,4,0,0,0-4,4v6.637L24.727,33.649l.035.022A3.973,3.973,0,0,0,24,36.005V84a4,4,0,0,0,4,4H60A4,4,0,0,0,64,84V36.005c0-.094-.021-.181-.027-.272l.056.117L75,30.529V74.847l-6.906,6.418a1.5,1.5,0,0,0,2.043,2.2L78,76.153V28.033ZM67.632,21,60.908,32.114A3.977,3.977,0,0,0,60,32H29.331l6.993-11ZM46,18V13h3v5Zm-2,0H41V13h3Zm26.375,4.262,3.709,5.377-9.854,4.78ZM69,14v4H51V13H68A1,1,0,0,1,69,14ZM36,14a1,1,0,0,1,1-1h2v5H36ZM27,47H61V71H27ZM61,84A1.006,1.006,0,0,1,60,85H28.005a1.006,1.006,0,0,1-1-1V74H61ZM27,44V36.005a1.006,1.006,0,0,1,1-1.005H60A1.006,1.006,0,0,1,61,36.005V44Zm17,7c-5.514,0-10,3.589-10,8s4.486,8,10,8,10-3.589,10-8S49.514,51,44,51Zm0,13c-3.859,0-7-2.243-7-5s3.141-5,7-5,7,2.243,7,5S47.859,64,44,64Z"/></g></svg>