<svg xmlns="http://www.w3.org/2000/svg" viewBox="0 0 100 100"><defs><style>.cls-1{fill:#0a355a;}.cls-2{fill:#0f637f;}.cls-3{fill:#fa2415;}.cls-4{fill:#0d5375;}.cls-5{fill:#0d3a61;stroke:#35d9ae;stroke-miterlimit:10;stroke-width:3px;}.cls-6{fill:#35d9ae;}</style></defs><title>TetraActive</title><g id="Tetra"><polygon class="cls-1" points="36.5 20.5 68.5 20.5 61.5 34.5 27.5 34.5 36.5 20.5"/><polygon class="cls-1" points="71 22 76 31 77 76 62 87 62 34 71 22"/><rect class="cls-2" x="25.5" y="34.5" width="37" height="53"/><rect class="cls-3" x="25" y="46" width="37" height="27"/><rect class="cls-4" x="34.5" y="12.5" width="36" height="7"/><ellipse class="cls-5" cx="44" cy="60" rx="8.5" ry="6.5"/><path class="cls-6" d="M72,19.333V14a4,4,0,0,0-4-4H37a4,4,0,0,0-4,4v6.637L24.727,33.649l.035.022A3.973,3.973,0,0,0,24,36.005V84a4,4,0,0,0,4,4H60A4,4,0,0,0,64,84V36.005c0-.094-.021-.181-.027-.272l.056.117L75,30.529V74.847l-6.906,6.418a1.5,1.5,0,0,0,2.043,2.2L78,76.153V28.033ZM67.632,21,60.908,32.114A3.977,3.977,0,0,0,60,32H29.331l6.993-11ZM46,18V13h3v5Zm-2,0H41V13h3Zm26.375,4.262,3.709,5.377-9.854,4.78ZM69,14v4H51V13H68A1,1,0,0,1,69,14ZM36,14a1,1,0,0,1,1-1h2v5H36ZM27,47H61V71H27ZM61,84A1.006,1.006,0,0,1,60,85H28.005a1.006,1.006,0,0,1-1-1V74H61ZM27,44V36.005a1.006,1.006,0,0,1,1-1.005H60A1.006,1.006,0,0,1,61,36.005V44Z"/><path class="cls-6" d="M44,51c-5.514,0-10,3.589-10,8s4.486,8,10,8,10-3.589,10-8S49.514,51,44,51Zm0,13c-3.859,0-7-2.243-7-5s3.141-5,7-5,7,2.243,7,5S47.859,64,44,64Z"/></g></svg>