<svg xmlns="http://www.w3.org/2000/svg" viewBox="0 0 100 100"><defs><style>.cls-1{fill:#35d9ae;}</style></defs><title>TubeNotActive</title><g id="Tetra"><path class="cls-1" d="M86.736,76.306l-5.3-5.3-2.122,2.122L77.16,70.972l3.378-3.378a4.477,4.477,0,0,0,1.193-4.144l-.745-6.971-.657.07.453-.452L61.394,28.451a1.5,1.5,0,0,0-2.457,1.723L76.88,55.757,55.355,77.281,18.173,49.41,49.647,17.935a1.5,1.5,0,0,0,1.041-2.449L47.44,11.554a4.5,4.5,0,0,0-6.651-.317L10.807,41.22a4.5,4.5,0,0,0,.372,6.694L55.637,81.242l.424-.424,7.121,1.056a4.459,4.459,0,0,0,4.245-1.169l2.662-2.662,2.152,2.151L70.12,82.315l5.3,5.305a4.506,4.506,0,0,0,6.364,0l4.949-4.95a4.5,4.5,0,0,0,0-6.363Zm-2.121,2.122a1.5,1.5,0,0,1,0,2.12l-.353.353-4.243-4.242,1.415-1.415Zm-1.767,3.888L81.433,83.73,77.19,79.487,78.6,78.073ZM24.865,38.475,22.744,40.6l-3.536-3.536,2.121-2.122Zm-2.122-4.95L24.865,31.4,28.4,34.94l-2.122,2.121ZM21.33,42.011l-2.122,2.121L15.672,40.6l2.122-2.122ZM42.91,13.358a1.5,1.5,0,0,1,2.218.106l2.148,2.6L29.815,33.526l-3.536-3.537ZM12.49,44.473a1.484,1.484,0,0,1,.438-1.132l1.33-1.33,3.536,3.535-2.045,2.046-2.716-2.035A1.482,1.482,0,0,1,12.49,44.473ZM65.366,78.645a1.539,1.539,0,0,1-1.5.4l-5.24-.784L78.283,58.6l.562,5.258.037.207a1.547,1.547,0,0,1-.4,1.472ZM71.5,76.629l4.243-4.243L77.9,74.538,73.655,78.78ZM77.544,85.5l-3.182-3.183L75.776,80.9l4.243,4.243-.353.353A1.5,1.5,0,0,1,77.544,85.5Z"/><rect class="cls-1" x="41.395" y="42.859" width="3.001" height="34.366" transform="translate(-30.882 58.638) rotate(-53.366)"/></g></svg>