<svg xmlns="http://www.w3.org/2000/svg" viewBox="0 0 100 100"><defs><style>.cls-1{fill:#0a355a;}.cls-2{fill:#0f637f;}.cls-3{fill:#fa2415;}.cls-4{fill:#35d9ae;}</style></defs><title>WrappingActive</title><g id="Tetra"><path class="cls-1" d="M25,13l-1,9,52,1-1-7s0-2-3-2-21,1-26,0S28,11,25,13Z"/><path class="cls-1" d="M23,76l53,1v7s-1-1-6,1-18,0-21,0H28A7.962,7.962,0,0,1,23,76Z"/><path class="cls-2" d="M23.5,22.5h53s5,14,4,22-2,26-4,29l-2,3h-51S17.5,42.5,23.5,22.5Z"/><rect class="cls-3" x="46" y="31" width="26" height="25"/><path class="cls-4" d="M80.2,35.495a1.5,1.5,0,1,0-2.982.328c2.232,20.344-.976,35.2-1.981,39.177H24.721c-5.287-25.263-1.748-44.822-.312-51H78V17.5A5.507,5.507,0,0,0,72.5,12l-.11,0c-.157.012-15.852,1.146-25.986.006-15.321-1.73-16.339-1.264-18.37-.342a9.38,9.38,0,0,1-1.009.409C24.276,12.993,22,14.034,22,17.5v3.786c-.733,2.532-6.672,24.691,0,55.37V81.5A5.507,5.507,0,0,0,27.5,87l.177-.011a99.32,99.32,0,0,1,19.919,0A150.1,150.1,0,0,0,63.79,88.149a26.427,26.427,0,0,0,9.185-1.226C75.724,86.007,78,84.966,78,81.5V76.317C78.89,73.058,82.628,57.6,80.2,35.495ZM65,21H62V15.477c1.047-.023,2.052-.053,3-.087Zm2-5.688c1.143-.05,2.158-.1,3-.151V21H67ZM72.549,15A2.5,2.5,0,0,1,75,17.5V21H72V15.038ZM60,15.511V21H57V15.524C58.015,15.528,59.019,15.523,60,15.511ZM25,17.5c0-1.089,0-1.586,2.975-2.577a12.583,12.583,0,0,0,1.3-.524c1.386-.628,2.3-1.043,16.794.591,2.747.311,5.845.461,8.932.513V21H25ZM43,78v5.611c-1.026-.054-2.028-.091-3-.111V78ZM33,78v5.586c-1.15.052-2.16.116-3,.179V78Zm-5.576,6A2.5,2.5,0,0,1,25,81.5V78h3v5.938C27.736,83.965,27.535,83.986,27.424,84ZM35,83.034V78h3v5l-.144,0C36.854,83,35.9,83.012,35,83.034ZM75,81.5c0,1.089,0,1.586-2.975,2.577-2.505.835-5.937,1.979-24.093-.067-.987-.112-1.965-.2-2.932-.271V78H75Z"/><path class="cls-4" d="M45,32.532V54.468A2.532,2.532,0,0,0,47.532,57H70.468A2.532,2.532,0,0,0,73,54.468V32.532A2.532,2.532,0,0,0,70.468,30H47.532A2.532,2.532,0,0,0,45,32.532Zm26-.17V54.638a.363.363,0,0,1-.362.362H47.362A.363.363,0,0,1,47,54.638V32.362A.363.363,0,0,1,47.362,32H70.638A.363.363,0,0,1,71,32.362Z"/><path class="cls-4" d="M64,36H51a1,1,0,0,0,0,2H64a1,1,0,0,0,0-2Z"/><path class="cls-4" d="M60,41H51a1,1,0,0,0,0,2h9a1,1,0,0,0,0-2Z"/><path class="cls-4" d="M28.4,40.016a1.481,1.481,0,0,0-1.658,1.322c-.071.626-1.692,15.467,1.579,26.566a1.5,1.5,0,1,0,2.877-.847c-3.1-10.512-1.492-25.236-1.475-25.383A1.5,1.5,0,0,0,28.4,40.016Z"/></g></svg>