<svg id="Layer_1" data-name="Layer 1" xmlns="http://www.w3.org/2000/svg" xmlns:xlink="http://www.w3.org/1999/xlink" viewBox="0 0 100 100"><defs><style>.cls-1{fill:none;}.cls-2{fill:#fa2415;}.cls-3{fill:#35d9ae;}.cls-4{clip-path:url(#clip-path);}.cls-5{clip-path:url(#clip-path-2);}.cls-6{clip-path:url(#clip-path-3);}.cls-7{clip-path:url(#clip-path-4);}.cls-8{clip-path:url(#clip-path-5);}.cls-9{clip-path:url(#clip-path-6);}.cls-10{clip-path:url(#clip-path-7);}.cls-11{clip-path:url(#clip-path-8);}.cls-12{clip-path:url(#clip-path-9);}.cls-13{fill:#031441;fill-rule:evenodd;}.cls-14{clip-path:url(#clip-path-10);}</style><clipPath id="clip-path"><circle class="cls-1" cx="57" cy="52" r="1"/></clipPath><clipPath id="clip-path-2"><circle class="cls-2" cx="49.5" cy="21.833" r="1.5"/></clipPath><clipPath id="clip-path-3"><circle class="cls-2" cx="76" cy="21.333" r="1"/></clipPath><clipPath id="clip-path-4"><circle class="cls-2" cx="42.5" cy="39.833" r="1.5"/></clipPath><clipPath id="clip-path-5"><circle class="cls-2" cx="33" cy="31.333" r="1"/></clipPath><clipPath id="clip-path-6"><circle class="cls-2" cx="59" cy="44.333" r="1"/></clipPath><clipPath id="clip-path-7"><circle class="cls-2" cx="74.5" cy="67.833" r="1.5"/></clipPath><clipPath id="clip-path-8"><circle class="cls-2" cx="81.5" cy="49.833" r="1.5"/></clipPath><clipPath id="clip-path-9"><circle class="cls-2" cx="69.5" cy="26.833" r="1.5"/></clipPath><clipPath id="clip-path-10"><ellipse class="cls-1" cx="87.02" cy="350.653" rx="18.02" ry="17.851"/></clipPath></defs><title>CometNormal</title><circle class="cls-3" cx="39" cy="63" r="16"/><circle class="cls-2" cx="49.5" cy="21.833" r="1.5"/><circle class="cls-2" cx="76" cy="21.333" r="1"/><circle class="cls-2" cx="42.5" cy="39.833" r="1.5"/><circle class="cls-2" cx="50" cy="36.333" r="1"/><circle class="cls-2" cx="33" cy="31.333" r="1"/><circle class="cls-2" cx="59" cy="44.333" r="1"/><g class="cls-9"><rect class="cls-2" x="12" y="11.333" width="80" height="80"/></g><circle class="cls-2" cx="74.5" cy="67.833" r="1.5"/><g class="cls-10"><rect class="cls-2" x="12" y="11.333" width="80" height="80"/></g><circle class="cls-2" cx="81.5" cy="49.833" r="1.5"/><g class="cls-11"><rect class="cls-2" x="12" y="11.333" width="80" height="80"/></g><circle class="cls-2" cx="69.5" cy="26.833" r="1.5"/><g class="cls-12"><rect class="cls-2" x="12" y="11.333" width="80" height="80"/></g><path class="cls-2" d="M53,33.333a2,2,0,0,1-1.382-3.445l11.5-11a2,2,0,1,1,2.765,2.891l-11.5,11A1.994,1.994,0,0,1,53,33.333Z"/><path class="cls-2" d="M52,45.333a2,2,0,0,1-1.353-3.474l12-11a2,2,0,1,1,2.7,2.949l-12,11A1.994,1.994,0,0,1,52,45.333Z"/><path class="cls-2" d="M65.06,44.4a2,2,0,0,1-1.351-3.476L85.65,20.858a2,2,0,1,1,2.7,2.951L66.408,43.876A1.988,1.988,0,0,1,65.06,44.4Z"/><path class="cls-2" d="M62.075,58.4a2,2,0,0,1-1.359-3.467l14.568-13.5A2,2,0,0,1,78,44.368l-14.568,13.5A2,2,0,0,1,62.075,58.4Z"/><path class="cls-2" d="M75.937,54.444a2,2,0,0,0-2.829-.049L58.36,68.645a1.871,1.871,0,0,0-.141.168l-.081.069c0,.015-.011.029-.015.044a1.971,1.971,0,0,0-.358,1A19.98,19.98,0,1,1,34.276,43.7l.826-.829a2,2,0,0,0,.239-.2l13.93-13.929a2,2,0,0,0-2.829-2.828L32.513,39.846a1.955,1.955,0,0,0-.327.448,24.036,24.036,0,0,0,6.378,47.071,23.586,23.586,0,0,0,22.03-15.476,2.015,2.015,0,0,0,.546-.367l14.748-14.25A2,2,0,0,0,75.937,54.444Z"/><path class="cls-13" d="M47.622,57.656a1.536,1.536,0,0,0-2.16,0L36.3,66.733,32.228,62.7a1.534,1.534,0,0,0-2.16,0l-.01.01a1.505,1.505,0,0,0,.01,2.129l5.091,5.043a1.719,1.719,0,0,0,2.281,0L47.622,59.8l.01-.01A1.506,1.506,0,0,0,47.622,57.656Z"/></svg>
